<?xml version="1.0" encoding="utf-8"?>
<!-- Generator: Adobe Illustrator 24.0.2, SVG Export Plug-In . SVG Version: 6.00 Build 0)  -->
<svg version="1.1" id="Слой_1" xmlns="http://www.w3.org/2000/svg" xmlns:xlink="http://www.w3.org/1999/xlink" x="0px" y="0px"
	 viewBox="0 0 120 120" style="enable-background:new 0 0 120 120;" xml:space="preserve">
<g>
	<path d="M23.2,112.9c-0.8,0-1.7,0-2.5,0c-0.1-0.1-0.2-0.1-0.4-0.1c-2.9-0.5-5-2.1-6.4-4.7c-1.3-2.5-1.6-5.2-1.6-8
		c0-26.7,0-53.4,0-80.1c0-1.9,0.3-3.9,0.8-5.8c1.3-4.7,5-7.4,9.6-7c2.6,0.2,5,1.2,7.3,2.5C53.4,23,76.7,36.4,100.1,49.9
		c1.7,1,3.2,2.1,4.6,3.5c3.8,3.7,4,8.6,0.6,12.7c-1.5,1.8-3.3,3.1-5.3,4.2c-22.1,12.7-44.3,25.4-66.4,38.1
		C30.2,110.2,27.1,112.3,23.2,112.9z"/>
</g>
</svg>
