<?xml version="1.0" encoding="utf-8"?>
<!-- Generator: Adobe Illustrator 24.0.2, SVG Export Plug-In . SVG Version: 6.00 Build 0)  -->
<svg version="1.1" id="Слой_1" xmlns="http://www.w3.org/2000/svg" xmlns:xlink="http://www.w3.org/1999/xlink" x="0px" y="0px"
	 viewBox="0 0 120 120" style="enable-background:new 0 0 120 120;" xml:space="preserve">
<g>
	<path d="M16.2,67.6c-0.7,0.9-1.2,1.6-1.9,2.2c-1.5,1.7-4,2-5.7,0.6c-1.7-1.4-2.1-3.7-0.7-5.6c2.7-3.6,5.6-7.3,8.3-10.9
		c1.1-1.4,2.6-1.9,4.2-1.2c0.7,0.2,1.5,0.5,2.1,1c3.5,2.6,6.8,5.2,10.2,7.8c1.4,1.1,1.7,2.6,1.4,4.2c-0.4,1.6-1.6,2.7-3.2,2.8
		c-1.1,0-2.3-0.4-3.3-0.9c-1.1-0.6-2.1-1.5-3.1-2.3c-0.1,0.1-0.2,0.1-0.4,0.2c0.7,2.6,1.4,5.3,2.5,7.9c5.8,14.6,20.1,23.7,35.7,22.8
		c11.4-0.6,20.6-5.7,27.5-14.9c0.2-0.4,0.5-0.7,0.9-1.1c1.5-1.9,3.8-2.3,5.7-1.1c1.9,1.2,2.3,3.7,1.1,5.7c-2.8,4.2-6.3,7.9-10.4,11
		c-26.2,19.5-63.8,5.2-70.5-26.8C16.4,68.7,16.3,68.3,16.2,67.6z"/>
	<path d="M95.9,54.5C94.2,43.8,89,35.4,79.9,29.5c-16.5-10.7-38.4-6.4-49.8,9.8c-0.5,0.7-1.2,1.5-2,2c-1.6,1-3.6,0.6-4.8-0.9
		c-1.2-1.4-1.5-3.5-0.2-5.2C28,27.9,34.4,22.4,42.5,19c25.4-10.7,54,3.5,60.9,30.1c0.2,1,0.5,2.1,0.7,3.3c0.6-0.7,1.1-1.4,1.6-2
		c1.6-2,4.1-2.3,5.8-0.9c1.9,1.4,2.1,3.8,0.6,5.8c-2.7,3.6-5.3,7-8.1,10.5c-1.2,1.6-2.7,2-4.7,1.2c-0.7-0.2-1.4-0.6-2-1.1
		c-3.3-2.5-6.5-5.1-9.8-7.5c-1.4-1.1-1.9-2.5-1.5-4.2c0.4-1.6,1.5-2.7,3.1-3.1c1.2-0.2,2.5,0,3.5,0.9C93.8,52.9,94.8,53.7,95.9,54.5
		z"/>
</g>
</svg>
