<?xml version="1.0" encoding="utf-8"?>
<!-- Generator: Adobe Illustrator 24.0.2, SVG Export Plug-In . SVG Version: 6.00 Build 0)  -->
<svg version="1.1" id="Слой_1" xmlns="http://www.w3.org/2000/svg" xmlns:xlink="http://www.w3.org/1999/xlink" x="0px" y="0px"
	 viewBox="0 0 120 120" style="enable-background:new 0 0 120 120;" xml:space="preserve">
<g>
	<path d="M20,93c0-22,0-44.1,0-66.1c0.1-0.1,0.1-0.3,0.2-0.4c0.4-2.1,1.5-3.8,3.3-4.9c1-0.7,2.3-1,3.5-1.5c22,0,44.1,0,66.1,0
		c0.1,0,0.1,0.1,0.2,0.1c4.3,1,6.7,4,6.7,8.3c0,21,0,42,0,63c0,0.8-0.1,1.6-0.2,2.3c-0.9,3.7-4.1,6.1-8,6.1c-15.8,0-31.6,0-47.4,0
		c-5.4,0-10.7,0-16.1,0c-2.5,0-4.6-1-6.2-2.8C20.9,95.9,20.4,94.4,20,93z"/>
</g>
</svg>
